<?xml version="1.0" encoding="UTF-8"?>
<svg id="Layer_1" data-name="Layer 1" xmlns="http://www.w3.org/2000/svg" viewBox="0 0 697 647">
  <defs>
    <style>
      .cls-1 {
        fill: transparent;
      }
      .cls-2 {
        fill: #646464;
      }
    </style>
  </defs>
  <path class="cls-1" d="m0,0h697v636.44H0c0-212.15,0-424.29,0-636.44Zm182.69,150.55l.1.09c-.52-1.39-.99-2.79-1.56-4.15-1.06-2.55-3.13-5.08-3.1-7.61.2-15.88.78-31.75,1.41-47.62.27-6.85,2.8-14.21,1.01-20.39-2.67-9.2-2-18.13-1.76-27.2.13-4.9,1.48-9.76,2.43-15.53,0,0-.86-1.1-1.61-2.28-.66-1.02-1.2-2.12-2.03-3.62,6.3,1.85,8.43,5.86,8.34,11.39-.18,10.75-.31,21.49-.58,32.24-.07,2.63-.62,5.25-.86,7.89-.6,6.64-1.58,13.29-1.63,19.94-.06,8.99.56,17.98.99,26.97.1,2.1.63,4.18.96,6.26.55.07,1.1.13,1.64.2.94-2.49,2.81-5.02,2.68-7.46-.98-18.32-2.08-36.62,1.04-54.86.03-.17,0-.35,0-.53-.01-13.22.05-26.45-.1-39.67-.03-2.56-.53-5.26-1.49-7.63-1.27-3.1-3.14-5.63-6.25-1.14-.65.94-2.36,1.42-3.66,1.62-9.09,1.36-18.17,3.32-27.32,3.72-31.45,1.37-62.91,2.49-94.39,3.06-12.61.23-25.26-1.26-37.89-1.84-3.33-.15-5.44,1.33-4.93,5.13.33,2.45.66,4.89.89,7.35,1.77,19.22,1.05,38.4-.27,57.63-2.27,32.99,4.74,65.77,2.42,98.85-1.26,17.91-.64,35.94-.88,53.92-.05,3.64,2.56,5.29,5.83,3.86,2.05-.9,4.24-1.78,6.44-2,13.19-1.36,26.38-3.01,39.61-3.68,36.56-1.84,73.14-3.24,109.72-4.78,1.39-.06,3.4-.27,4.1.5,4.94,5.48,8.32.93,12.21-1.31-1.02-2.92-2.51-5.49-2.77-8.18-.94-9.84-1.7-19.7-2.09-29.58-.6-15.17-.86-30.36-1.22-45.54-.09-3.76-.84-6.43-5.44-4.04Zm319.87,265.2c-.67-.16-1.34-.33-2.01-.49-.21-19.94,1.61-39.94-.49-60.42-5.48,2.67-5.26,6.8-4.6,10.25,2.96,15.53.27,30.99,0,46.47-.29,17.12-.84,34.24-.83,51.36.02,25.26.61,50.51.62,75.77,0,14.13-.84,28.25-.95,42.38-.13,16.14.08,32.29.32,48.43.03,1.72,1.21,3.42,1.86,5.14.54.24,1.08.47,1.62.71.82-7.51,5.72-6.52,10.35-6.55,24.77-.16,49.54-.55,74.31-.65,29.69-.12,59.39-.03,90.5-.03.09-5.36,1.85-11.72-.14-16.51-2.31-5.54-1.63-9.94-.61-15.16.61-3.09-.65-6.53-1.02-9.82-.12-1.09-.26-2.23-.09-3.3.51-3.15,1.58-6.26,1.7-9.41.26-7.22-.22-14.48.12-21.7,1.13-24.16,3.18-48.31,3.54-72.48.31-20.81-1.7-41.65-1.8-62.48-.15-31.8.66-63.61.72-95.41.06-32.17-.29-64.33-.5-96.5-.01-2.29-.13-4.62-.63-6.84-.21-.93-1.53-1.61-2.35-2.4-.78.8-2.14,1.54-2.22,2.41-.3,2.96-.38,5.99-.1,8.95.39,4.13-1.34,5.71-5.66,5.48,0-2.36-.02-4.46,0-6.56.15-18.01.7-36.04.37-54.04-.5-27.01-1.66-54-2.43-81.01-.06-2.14.77-4.31,1.19-6.47.88.09,1.76.18,2.64.27,0,15.96-.02,31.91,0,47.87.03,15.72.04,31.44.26,47.16.03,2.47,1.11,4.92,1.71,7.38.6-.04,1.19-.08,1.79-.11.52-5.17,1.5-10.34,1.47-15.5-.15-19.77-.74-39.54-.94-59.31-.25-24.37-.32-48.75-.33-73.12,0-5.11.22-10.28,1.04-15.31,1.45-8.83-.28-12.18-9.18-15.4-.45,1.64-.89,3.27-1.37,5.05-4.51.41-8.73,1.17-12.94,1.11-11.85-.15-23.7-.89-35.55-.94-35.39-.13-70.79-.04-106.18-.08-2.08,0-4.2-.24-6.23-.65-2.06-.42-4.04-1.2-6.06-1.83-.23,2.46-.59,4.92-.65,7.38-.09,3.6.3,7.23,0,10.8-.24,2.9-1.66,5.73-1.71,8.61-.29,15.36-.3,30.72-.44,46.08-.22,24.02-1.08,48.05-.55,72.05.51,23.11,2.81,46.17,3.61,69.28.5,14.44-.54,28.92-.48,43.38.05,14.43.59,28.86.99,43.29.02.78.72,1.55,1.11,2.34,4.13-2.87,4.8-4.45,4.52-10.39-.36-7.59-.84-15.17-1.01-22.76-.41-18.71-.46-37.42-1.04-56.12-1.22-39.18-5.58-78.25-3.77-117.53.37-8.01.76-16.02,1.15-24.04.7-.17,1.39-.35,2.09-.52.63,1.51,1.8,3.01,1.82,4.52.16,15.72.24,31.43.11,47.15-.12,14.82-.75,29.64-.67,44.46.04,7.03,1.65,14.05,1.8,21.1.42,19.24.4,38.49.67,57.73.03,1.91.8,3.8,1.22,5.7.59-.02,1.18-.04,1.77-.06.28-2.11,1.11-4.32.75-6.31-1.09-5.97,1.85-9.69,6.27-12.83,1.44-1.03,2.85-2.1,4.3-3.11,48.39-33.32,96.2-67.41,140.17-106.52.57-.5,1.37-.73,2.48-1.3.63,9.66,1.37,18.8,1.67,27.95.05,1.67-1.34,3.84-2.71,5.02-5.22,4.48-10.77,8.57-16.09,12.94-20.2,16.61-40,33.75-60.64,49.8-22.19,17.25-45.19,33.46-67.7,50.31-1.3.97-1.4,3.55-2.06,5.38,1.8-.45,3.99-.4,5.32-1.45,3.87-3.06,7.18-6.83,11.09-9.84,39.36-30.3,81.23-57.36,117.84-91.23,4.57-4.22,10.03-7.48,15.93-11.8.4,6.78,1.05,12.36.89,17.91-.07,2.24-1.45,4.87-3.04,6.56-3.36,3.58-7.38,6.53-10.89,9.98-10.84,10.64-20.94,22.12-32.47,31.94-21.94,18.68-44.73,36.37-67.05,54.6-13.47,11-26.73,22.26-40.12,33.43-2.59-11.49,1.38-23.53-4.5-34.51-1.3,2.18-1.79,4.39-1.68,6.57,1.09,22.57,2.51,45.14,3.34,67.72.5,13.57.29,27.19,0,40.77-.07,3.3-1.66,6.57-2.55,9.85Zm-228.24-166.7c.49.12.97.23,1.46.35.21.77.61,1.55.59,2.32-.14,5.8-.71,11.62-.43,17.4.22,4.55-1.08,8.33-4.73,10.52-4.53,2.71-4.49,6.33-4.35,10.83.64,20.83.89,41.67,1.38,62.5.11,4.56.77,9.1.89,13.65.32,11.63.92,23.28.52,34.89-.21,6.15-.33,6.87,5.72,6.67,28.45-.97,56.89-2.36,85.35-2.64,20.62-.2,41.4-2.13,61.88,2.69,1.92.45,6.12-1.24,6.34-2.46.7-3.97-3.18-2.73-5.25-2.96-41.83-4.67-83.72-2.13-125.61-1.19-7.53.17-15.07.02-22.78.02-.63-28.46-1.26-56.79-1.89-85.11.59-.3,1.17-.6,1.76-.9,1.07,1.05,3.06,2.08,3.06,3.14.16,17.29.03,34.58.06,51.87.01,8.1.22,16.2.37,24.3,0,.2.48.39,1.71,1.32,1.17-2.01,2.88-3.81,3.26-5.86.54-2.88-.33-6.02.18-8.91.52-2.91,1.2-6.59,3.21-8.32,9.11-7.83,18.45-15.43,28.17-22.48,36.53-26.47,71.36-54.97,104.48-86.52.26,1.48.5,2.28.53,3.09.55,17.29,1.4,34.57,1.52,51.86.1,14.8-.52,29.61-1.12,44.41-.08,1.97-1.53,4.33-3.06,5.71-5.63,5.1-11.96,9.49-17.26,14.89-3.59,3.66-7.4,4.98-12.16,4.95-7.07-.05-14.14-.01-22.42-.01,18.74-15.09,36.42-29.32,54.38-43.79-4.04-2.08-6.87-2.02-9.96.58-16.35,13.78-32.84,27.39-49.33,41.01-1.2.99-2.72,2.21-4.11,2.23-11.03.18-22.07.1-34.25.1,1.29-1.76,1.5-2.2,1.85-2.5,22.11-18.76,44.29-37.43,66.32-56.29,8.59-7.36,16.86-15.1,25.25-22.69,2.21-2,4.05-4.11-1.54-7.86-6.15,6.64-11.43,14.19-18.16,20.09-23.52,20.65-47.67,40.58-71.28,61.13-7.04,6.13-14.45,9.07-23.73,7.85-3.22-.42-6.59.29-9.89.48-.04.76-.08,1.51-.12,2.27,2.97.55,5.94,1.54,8.91,1.55,9.9.03,19.81-.59,29.7-.42,9.8.17,19.59,1.37,29.39,1.45,12.02.1,24.04-.7,36.06-.69,8.96.01,17.93.72,25.44,1.05,2.02,3.02,3.32,4.97,4.63,6.93.95-2.26,2.72-4.53,2.68-6.77-.06-4.14-1.73-8.26-1.77-12.39-.18-19.26.15-38.52-.05-57.78-.23-22.07-.78-44.13-1.3-66.19-.07-3.1-.45-6.39-5.01-7.21v8.73c-2.47,1.15-4.58,1.58-5.94,2.83-12.85,11.89-24.88,24.75-38.46,35.73-29.29,23.67-59.35,46.39-89.1,69.49-.5.38-1.14.58-2.44,1.23,0-8.33.19-16.04-.08-23.73-.14-3.9,1.07-6.61,4.12-9.08,15.66-12.69,31.19-25.56,46.77-38.36,20.08-16.5,40.23-32.91,60.2-49.55,7.16-5.97,13.85-12.5,20.41-18.45,2.46,1.02,3.99,1.65,6.56,2.72v-43.07c.73-.02,1.47-.04,2.2-.07.31,2.54.73,5.07.9,7.62,1.02,15.15,2.29,30.3,2.9,45.47.81,20.28,1.35,40.57,1.54,60.87.15,16.04-.61,32.09-.58,48.14.02,12.7.69,25.39.94,38.09.07,3.63-.31,7.28-.48,10.91,4.29.68,5.15-1.62,5.29-4.59.21-4.23.6-8.47.51-12.7-.38-18-1.05-35.99-1.35-53.99-.52-31.42-.59-62.85-1.39-94.27-.39-15.17-1.99-30.31-3.09-45.45-.23-3.13-1.09-5.77-5.29-4.87v-7.33c.4.33.8.66,1.19.99,1.71-1.62,3.43-3.24,5.14-4.86-1.99-1.46-3.98-2.92-5.97-4.38-.47.41-.94.82-1.42,1.23,0-2.45-.32-4.95.12-7.32.26-1.39,1.5-3.41,2.66-3.69,3.86-.94,4.02-3.46,3.57-6.48-.34-2.27-1.1-4.52-1.12-6.78-.08-10.58.1-21.15.05-31.73-.12-22.6-.09-45.21-.61-67.8-.22-9.62-1.5-19.24-2.65-28.82-.49-4.07-3.03-4.36-7.02-3.52-7.87,1.66-15.93,2.67-23.97,3.15-7.39.44-14.89-.79-22.25-.2-33.52,2.69-67,5.26-100.65,1.97-11.42-1.12-10.84-.67-9.71,10.68,1.24,12.43,1.46,24.99,1.61,37.5.4,32.69.49,65.38.8,98.07.07,7.06.52,14.11.79,21.16.84,22.29,4.56,44.54,1.16,66.91-.03.17-.06.39.02.52.97,1.52,1.96,3.03,2.95,4.54,1.17-1.31,2.59-2.48,3.44-3.97,1-1.75,1.52-3.77,2.24-5.68Zm-87.68,142.9c.66-1,1.48-2.6,2.62-3.9,1.04-1.18,2.44-2.05,3.68-3.05-1.66-.98-3.29-2.75-4.98-2.8-5.28-.16-10.58.35-15.88.54-50.33,1.84-100.66,3.64-150.99,5.55-2.77.11-5.5,1.11-6.98,1.43,2.45,6.66,4.59,12.48,6.7,18.23,3-2.15,4.93-4.69,7.1-4.9,10.18-.99,20.42-1.56,30.65-1.87,39.39-1.21,78.79-2.31,118.19-3.27,2.32-.06,4.62,1.87,7.03,2.3,2.51.44,5.38.81,7.62-.03,1.32-.49,1.72-3.41,2.53-5.24-2.02-.82-4.04-1.65-7.31-2.98Zm79.66,217.47c.97,3.55,2.5,6.25,2.24,8.76-1.04,10,.35,11.39,10.37,10.67,16.73-1.2,33.48-2.24,50.24-2.93,10.05-.41,20.14.16,30.2-.06,23.44-.52,46.88-1.72,70.2,1.98,1.2.19,2.53.18,3.68-.15,1.24-.35,3.11-1,3.32-1.85.28-1.14-.49-2.82-1.3-3.91-2.23-2.99-2.03-9.91,1.11-11.81,3.96-2.39,2.21-4.07-.11-5.88-2.29-1.78-4.53-5.49-7.44-.4-.45.78-2.55.83-3.9.87-31.62.88-63.24,1.81-94.87,2.52-19.09.43-38.19.45-57.28.81-2.47.05-4.92,1.03-6.48,1.37Zm-247.05,21.65c-.08.56-.15,1.12-.23,1.68,2.59.77,5.18,2.17,7.78,2.19,8.3.04,16.61-.36,24.9-.71,42.2-1.78,84.39-3.63,126.6-5.3,2.15-.09,4.34,1.32,6.53,1.97,1.06.32,2.21.84,3.24.7,2.39-.33,4.8-.83,7.08-1.62,1.32-.45,2.4-1.59,3.58-2.42-.9-.86-1.72-1.83-2.72-2.54-.52-.37-1.53-.05-2.03-.43-1.28-.97-3.23-2.06-3.35-3.27-.12-1.21,1.45-2.8,2.61-3.87,1.15-1.06,2.71-1.67,4.09-2.48l-.26-1.46c-2.87-.43-5.75-1.27-8.61-1.22-46.3.88-92.6,1.93-138.9,2.8-6.7.13-13.41-.57-20.12-.7-6.11-.12-7.97,2.34-6.5,8.28.49,2,1.07,3.99,1.61,5.98-1.99.91-3.65,1.67-5.31,2.42Zm479.2-300.86c-.8.03-1.59.06-2.39.09-1.07,2.02-3.14,4.15-2.94,6.03.19,1.76,2.79,3.25,4.32,4.86,1.63-1.74,4.34-3.35,4.57-5.26.21-1.74-2.27-3.8-3.57-5.72ZM193.39,134.8c-3.03-2.17-4.74-4.33-6.23-4.19-1.61.15-3.02,2.45-4.52,3.81,1.39,1.5,2.62,3.96,4.21,4.22,1.48.24,3.35-1.85,6.54-3.84Zm82.51,137.68c-3.07-2.01-4.77-3.97-6.43-3.94-1.35.02-3.86,2.62-3.69,3.76.25,1.66,2.3,4.04,3.83,4.24,1.48.19,3.28-1.98,6.29-4.05Zm401.87-72.89c-3.15-2.02-5.01-4.13-6.5-3.9-1.52.23-3.41,2.64-3.72,4.35-.18.99,2.45,3.49,3.82,3.49,1.65,0,3.31-1.92,6.4-3.94Zm-251.85,42.32c-2.8-1.92-4.66-4.08-5.77-3.75-1.64.5-2.74,2.77-4.07,4.29,1.42,1.2,2.78,3.27,4.27,3.36,1.39.09,2.91-1.92,5.57-3.9Zm77.71,36.01c1.85-2.34,3.98-3.95,3.73-4.96-.39-1.55-2.42-2.68-3.76-3.99-1.2,1.25-3.21,2.41-3.36,3.77-.14,1.27,1.7,2.76,3.39,5.18Z"/>
  <path class="cls-2" d="m502.56,415.75c.89-3.28,2.48-6.55,2.55-9.85.28-13.59.49-27.2,0-40.77-.83-22.58-2.25-45.14-3.34-67.72-.1-2.18.38-4.38,1.68-6.57,5.88,10.99,1.91,23.03,4.5,34.51,13.39-11.17,26.65-22.43,40.12-33.43,22.32-18.23,45.11-35.92,67.05-54.6,11.53-9.82,21.63-21.3,32.47-31.94,3.51-3.45,7.54-6.4,10.89-9.98,1.59-1.7,2.98-4.32,3.04-6.56.16-5.55-.49-11.13-.89-17.91-5.9,4.32-11.37,7.58-15.93,11.8-36.61,33.87-78.48,60.94-117.84,91.23-3.91,3.01-7.22,6.78-11.09,9.84-1.33,1.05-3.52,1-5.32,1.45.66-1.83.76-4.4,2.06-5.38,22.51-16.84,45.51-33.05,67.7-50.31,20.64-16.05,40.44-33.19,60.64-49.8,5.32-4.37,10.87-8.46,16.09-12.94,1.38-1.18,2.77-3.35,2.71-5.02-.3-9.15-1.04-18.3-1.67-27.95-1.1.57-1.91.8-2.48,1.3-43.98,39.11-91.78,73.2-140.17,106.52-1.46,1-2.86,2.08-4.3,3.11-4.42,3.14-7.36,6.87-6.27,12.83.36,1.99-.46,4.2-.75,6.31-.59.02-1.18.04-1.77.06-.43-1.9-1.2-3.8-1.22-5.7-.26-19.24-.25-38.49-.67-57.73-.15-7.04-1.76-14.06-1.8-21.1-.08-14.82.56-29.64.67-44.46.12-15.72.04-31.43-.11-47.15-.01-1.51-1.18-3.02-1.82-4.52-.7.17-1.39.35-2.09.52-.38,8.01-.78,16.02-1.15,24.04-1.82,39.27,2.54,78.35,3.77,117.53.58,18.7.63,37.42,1.04,56.12.17,7.59.65,15.17,1.01,22.76.28,5.94-.39,7.52-4.52,10.39-.39-.79-1.09-1.56-1.11-2.34-.4-14.43-.93-28.86-.99-43.29-.05-14.46.98-28.94.48-43.38-.8-23.11-3.1-46.17-3.61-69.28-.53-24,.32-48.03.55-72.05.14-15.36.15-30.72.44-46.08.05-2.88,1.48-5.71,1.71-8.61.29-3.58-.09-7.2,0-10.8.06-2.47.42-4.92.65-7.38,2.02.62,4,1.41,6.06,1.83,2.04.42,4.15.65,6.23.65,35.39.04,70.79-.06,106.18.08,11.85.05,23.7.79,35.55.94,4.21.05,8.43-.7,12.94-1.11.48-1.78.92-3.41,1.37-5.05,8.9,3.22,10.63,6.58,9.18,15.4-.83,5.03-1.04,10.2-1.04,15.31,0,24.37.08,48.75.33,73.12.2,19.77.8,39.54.94,59.31.04,5.16-.95,10.34-1.47,15.5-.6.04-1.19.08-1.79.11-.59-2.46-1.67-4.91-1.71-7.38-.22-15.72-.23-31.44-.26-47.16-.03-15.96,0-31.91,0-47.87-.88-.09-1.76-.18-2.64-.27-.42,2.16-1.25,4.32-1.19,6.47.77,27,1.93,54,2.43,81.01.34,18.01-.22,36.03-.37,54.04-.02,2.1,0,4.21,0,6.56,4.32.22,6.05-1.35,5.66-5.48-.28-2.96-.19-5.99.1-8.95.09-.87,1.45-1.61,2.22-2.41.82.79,2.14,1.47,2.35,2.4.5,2.22.61,4.55.63,6.84.21,32.17.56,64.33.5,96.5-.06,31.81-.86,63.61-.72,95.41.1,20.83,2.11,41.67,1.8,62.48-.36,24.17-2.41,48.31-3.54,72.48-.34,7.22.14,14.47-.12,21.7-.11,3.15-1.19,6.26-1.7,9.41-.17,1.07-.03,2.21.09,3.3.37,3.29,1.62,6.74,1.02,9.82-1.03,5.23-1.7,9.63.61,15.16,2,4.79.24,11.14.14,16.51-31.12,0-60.81-.09-90.5.03-24.77.1-49.54.49-74.31.65-4.63.03-9.53-.96-10.35,6.55-.54-.24-1.08-.47-1.62-.71-.65-1.71-1.83-3.42-1.86-5.14-.24-16.14-.44-32.29-.32-48.43.11-14.13.96-28.26.95-42.38-.02-25.26-.6-50.51-.62-75.77-.01-17.12.54-34.24.83-51.36.26-15.48,2.96-30.94,0-46.47-.66-3.45-.87-7.58,4.6-10.25,2.1,20.48.28,40.48.49,60.42.67.16,1.34.33,2.01.49Zm98.36,193.63c-3.14,1.51-6.29,3.02-9.57,4.59-2.09-4.55.25-7.1,3.75-9.57,9.82-6.94,19.88-13.61,29.13-21.26,11.7-9.67,22.52-20.41,34.09-30.26,4-3.41,7.04-6.48,6.7-12.19-.6-10.04-1.14-20.12-1.01-30.17.51-38.32,1.23-76.63,2.02-114.94.2-9.76.94-19.51,1.5-30.46-2.41,1.82-3.7,2.67-4.85,3.68-11.03,9.67-21.62,19.9-33.15,28.93-14.33,11.22-29.66,21.16-44.16,32.17-25.18,19.14-50.04,38.7-75.08,58.03-1.51,1.17-3.4,1.86-5.95,3.22-.26-4.89-.45-8.6-.65-12.3.5-.21,1.01-.41,1.51-.62,1.16,1.33,2.32,2.67,3.18,3.67,33.79-25.27,67.42-50.28,100.87-75.52,16.79-12.67,34.04-24.83,48.27-40.57,1.62-1.79,3.77-3.46,6-4.25,3.22-1.15,3.51-2.9,3.36-5.98-1.04-21.16-1.72-42.34-2.7-63.5-.32-6.86-1.32-13.7-1.67-20.56-.08-1.52,1.29-3.12,1.99-4.69l2.88.56c.69,20.66,1.38,41.32,2.08,61.98,2.6-12.16,1.5-86.37-.3-90.08-51.98,42.69-104.19,85.58-156.4,128.46-.73-.57-1.47-1.14-2.2-1.71.92-1.81,1.41-4.1,2.82-5.35,5.7-5.03,11.68-9.73,17.57-14.55,39.4-32.26,78.7-64.64,118.28-96.68,7.19-5.82,10.73-12.32,10.53-21.61-.19-8.89.87-17.8,1.47-28.2-2.89,2.66-4.75,4.17-6.37,5.9-27.34,29.1-57.76,54.6-89.9,78.25-14.5,10.68-27.9,22.85-41.79,34.36-.54.45-1.26.92-1.44,1.52-2.03,7.03-7.9,7.66-14.37,8.2.81,26.66,1.62,53.14,2.45,80.31,51.15-39.79,101.46-78.92,152.9-118.94-.97,2.82-1.18,4.98-2.32,6.39-2.09,2.59-4.55,4.97-7.18,7.03-46.38,36.29-92.84,72.49-139.13,108.9-2.01,1.58-3.56,4.95-3.65,7.54-.49,14.47-.29,28.96-.78,43.43-.1,3.01-2.15,5.96-3.29,8.94-.7-.21-1.41-.42-2.11-.63.67-17.24,1.34-34.48,2.03-52.07-1.69-.26-3.53-.55-5.6-.88-.1,1.46-.24,2.5-.24,3.54-.07,22.61.05,45.23-.22,67.84-.52,42.4-1.26,84.8-1.9,127.19-.12,7.72.42,8.09,9.02,4.92-1.95-3.83-3.83-7.51-5.73-11.25,4.49-3.24,3.74-8.97,3.99-14,.32-6.49-.79-13.05-.6-19.56.31-10.66,1.19-21.3,1.79-31.96.07-1.23-.09-2.47-.13-3.71-.46-13.04-.96-26.09-1.35-39.13-.05-1.69.39-3.39.78-6.48,7.08,6.44,3.53,14.52,5.75,20.47,15.24-10.15,30.47-20.02,45.42-30.31,33.95-23.37,67.95-46.69,97.64-75.57,1.71-1.66,4.71-2,7.11-2.96.34.52.68,1.04,1.02,1.57-1.3,1.76-2.41,3.72-3.96,5.22-2.15,2.09-4.58,3.9-6.97,5.72-26.28,20.03-52.34,40.36-78.94,59.96-16.92,12.47-34.75,23.71-51.92,35.86-3.62,2.56-8.04,6.32-8.78,10.16-1.65,8.56-1.22,17.53-1.64,26.47,13.06-8.06,25.21-15.56,37.36-23.05,35.04-21.62,66.79-47.61,98.39-73.81,2.04-1.69,3.97-3.6,6.22-4.93,1.08-.64,2.81-.17,4.24-.2-.17,1.45.06,3.13-.61,4.3-.74,1.29-2.25,2.18-3.52,3.13-5.8,4.34-11.71,8.55-17.45,12.99-14.55,11.25-28.58,23.22-43.62,33.76-24.46,17.14-49.6,33.29-74.3,50.09-2.72,1.85-6.04,5.14-6.25,7.97-.75,10.42-.3,20.92-.3,31.1,2.37-1.55,5.16-3.34,7.92-5.18,18.23-12.14,37.07-23.46,54.52-36.63,26.53-20.02,52.06-41.37,78.15-62,1.68-1.33,5.91-2.4,6.52-1.64,2.64,3.3-1.1,4.2-3.09,5.66-7.98,5.86-16.43,11.19-23.84,17.69-34.79,30.51-72.42,57.15-111.02,82.53-2.96,1.95-6.42,3.13-10.07,4.87-1.15,11.09-1.13,11.16,10.43,13.08,1.89.31,3.87.07,5.8.22,1.97.15,3.93.45,6.54.77-.85,1.56-1.23,2.9-1.64,2.91-6.57.13-13.15.09-19.91.09v7.62c20.53.44,40.82,1.16,61.12,1.23,20.17.08,40.34-.48,60.5-.78,9.99-.15,19.97-.33,31.37-.52-1.45-3.16-2.06-5.82-2.76-5.85-10.69-.37-21.55-6.88-32.25.54-.14-3.83-2.42-4.85-6.02-4.77-8.06.18-16.12.06-25.57.06,1.58-1.92,2.34-2.85,3.09-3.8,8.61-.09,17.25.19,25.82-.42,3.82-.27,8.14-1.48,11.14-3.72,8.9-6.64,17.31-13.96,25.78-21.16,1.21-1.03,2.44-2.83,2.48-4.31.24-8.02.11-16.05.11-24.71-1.45.69-2.13.87-2.63,1.27-20.52,16.74-41.03,33.49-61.48,50.31-.68.56-.76,1.86-1.12,2.82Zm-95.44-366.39c10.29-7.19,19.73-13.66,29.04-20.31,41.29-29.51,83.34-58.05,119.68-93.84,1.7-1.67,4.09-3.86,4.11-5.83.08-10.99-.46-21.99-.83-34.19-3.1,2.58-5.33,4.25-7.35,6.15-33.18,31.06-67.04,61.32-102.95,89.25-13.4,10.42-26.56,21.14-39.75,31.82-1.41,1.14-3.22,3-3.2,4.51.08,7.14.73,14.28,1.25,22.44Zm-2.64-61.69c4.22-4.02,7.58-7.63,11.37-10.75,11.46-9.45,22.65-19.32,34.73-27.92,39.03-27.78,71.53-62.57,105.05-96.29,3.18-3.2,3.86-6.74,2.25-10.64-3.7-8.93-12.59-10.46-18.95-3.42-.71.78-1.51,1.49-2.29,2.2-32.27,29.14-64.44,58.39-96.88,87.34-8.94,7.98-18.65,15.11-28.09,22.52-2.08,1.63-4.53,2.8-7.19,4.41v32.54Zm2.12,29.76c3.67-2.87,6.51-5.17,9.42-7.36,48.49-36.46,94.32-76.04,138.67-117.36,1.97-1.84,4.33-4.47,4.47-6.84.53-9.02.21-18.09.21-28.48-2.65,1.73-3.78,2.23-4.61,3.04-11.48,11.24-22.78,22.68-34.42,33.76-13.27,12.64-26.34,25.57-40.41,37.28-20.5,17.05-42.03,32.87-62.72,49.71-13.07,10.64-12.74,11.05-11.2,27.63.23,2.45.33,4.92.58,8.62Zm-2.29-68.08c2.52-1.6,3.59-2.16,4.52-2.9,11.58-9.21,23.35-18.19,34.66-27.71,29.75-25.02,59.01-50.59,85.93-78.7,2.1-2.19,4.17-4.4,6.93-7.31-7.87-.99-14.49-2.15-21.16-2.49-2.63-.14-5.99.82-7.93,2.51-13,11.41-25.58,23.31-38.54,34.77-19.18,16.95-38.66,33.56-57.75,50.61-2.95,2.63-5.76,6.63-6.38,10.37-1.05,6.32-.29,12.93-.29,20.84Zm82.05-119.71c1.45-2.21,2.23-3.4,3.21-4.88h-41.22c2.37.65,3.52,1.18,4.7,1.26,9.24.66,18.49,1.18,27.73,1.91,1.46.12,2.86,1.05,4.29,1.61-1.21,1.08-2.27,2.75-3.67,3.11-1.97.52-4.34.54-6.28-.05-5.79-1.78-10.18.16-14.48,3.97-16.77,14.89-33.71,29.59-50.49,44.46-1.64,1.46-3.54,3.55-3.77,5.53-1.17,10.01-1.84,20.07-2.8,31.53,2.59-2.05,3.84-2.95,4.99-3.96,12.55-11.13,25.13-22.24,37.62-33.43,17.22-15.43,34.46-30.84,51.48-46.48,2.39-2.19,3.58-5.68,5.86-9.44h-9.76c1.26,1.32,2.23,2.34,3.54,3.71-3.8.4-6.92.72-10.96,1.15Zm-79.9,48.77c17.42-15.8,33.88-30.73,50.34-45.66-.27-.53-.54-1.06-.81-1.59-6.45-.78-12.88-1.76-19.35-2.21-1.91-.13-4.35.71-5.82,1.96-7.53,6.41-14.85,13.06-22.17,19.72-.98.89-2.08,2.3-2.11,3.5-.19,7.54-.1,15.09-.1,24.29Zm166.3,322.36c-4.85,42.65-3.3,85.36-1.9,128.07,7.15-42.62-1.44-85.41,1.9-128.07Zm-5.3,216.03v-21.27c-8.53,6.94-16.35,13.3-24.16,19.66.15.54.3,1.07.45,1.61h23.72ZM504.61,21.53v18.7c6.8-6.38,12.88-12.1,19.91-18.7h-19.91Zm160.35,7.91c-.54-.12-1.08-.24-1.61-.35-.54,2.24-1.46,4.45-1.55,6.71-.17,4.02.23,8.06.25,12.09.05,9.57.02,19.14.02,28.71.67.18,1.34.37,2.02.55.77-2.07,2.23-4.16,2.19-6.22-.22-10.4-.86-20.79-1.28-31.18-.14-3.43-.02-6.87-.02-10.31Zm-168.41,49.71c.42.17.85.34,1.27.51.81-2.65,2.11-5.26,2.33-7.95.34-4.17.09-8.4-.25-12.58-.11-1.33-1.3-2.58-1.99-3.87-.87,1.35-2.49,2.72-2.47,4.06.13,6.61.7,13.22,1.11,19.83Zm169.31-53.59c-1.25-2.57-1.89-5.59-2.97-5.76-3.15-.49-6.48.16-9.74.36,0,.55,0,1.09,0,1.64,3.79,1.12,7.59,2.25,12.71,3.76Zm-170.01,22.73c.58.18,1.17.36,1.75.54.87-2.38,2.2-4.71,2.44-7.15.15-1.49-1.39-3.14-2.17-4.72-.48.2-.95.4-1.43.61l-.58,10.71Z"/>
  <path class="cls-2" d="m274.33,249.04c-.73,1.9-1.24,3.93-2.24,5.68-.86,1.49-2.27,2.66-3.44,3.97-.99-1.51-1.98-3.02-2.95-4.54-.08-.13-.05-.35-.02-.52,3.4-22.37-.32-44.61-1.16-66.91-.27-7.05-.72-14.11-.79-21.16-.31-32.69-.4-65.38-.8-98.07-.15-12.51-.37-25.07-1.61-37.5-1.13-11.35-1.71-11.8,9.71-10.68,33.65,3.3,67.13.72,100.65-1.97,7.36-.59,14.87.64,22.25.2,8.03-.48,16.1-1.49,23.97-3.15,4-.84,6.53-.55,7.02,3.52,1.15,9.58,2.43,19.19,2.65,28.82.52,22.59.49,45.2.61,67.8.06,10.58-.13,21.16-.05,31.73.02,2.26.78,4.51,1.12,6.78.45,3.02.29,5.54-3.57,6.48-1.16.28-2.4,2.29-2.66,3.69-.44,2.37-.12,4.87-.12,7.32.47-.41.94-.82,1.42-1.23,1.99,1.46,3.98,2.92,5.97,4.38-1.71,1.62-3.43,3.24-5.14,4.86-.4-.33-.8-.66-1.19-.99v7.33c4.21-.9,5.07,1.74,5.29,4.87,1.1,15.15,2.7,30.29,3.09,45.45.8,31.41.86,62.84,1.39,94.27.3,18,.97,35.99,1.35,53.99.09,4.23-.3,8.47-.51,12.7-.15,2.97-1.01,5.27-5.29,4.59.17-3.64.55-7.28.48-10.91-.25-12.7-.92-25.4-.94-38.09-.03-16.05.73-32.1.58-48.14-.19-20.29-.73-40.59-1.54-60.87-.61-15.17-1.87-30.32-2.9-45.47-.17-2.55-.59-5.08-.9-7.62-.73.02-1.47.04-2.2.07v43.07c-2.57-1.07-4.1-1.7-6.56-2.72-6.56,5.96-13.25,12.48-20.41,18.45-19.96,16.64-40.12,33.05-60.2,49.55-15.58,12.8-31.1,25.67-46.77,38.36-3.05,2.47-4.26,5.18-4.12,9.08.27,7.69.08,15.4.08,23.73,1.3-.65,1.94-.85,2.44-1.23,29.75-23.1,59.81-45.82,89.1-69.49,13.58-10.97,25.61-23.84,38.46-35.73,1.35-1.25,3.46-1.69,5.94-2.83v-8.73c4.57.82,4.94,4.1,5.01,7.21.52,22.06,1.07,44.12,1.3,66.19.2,19.26-.13,38.52.05,57.78.04,4.13,1.7,8.25,1.77,12.39.03,2.24-1.73,4.51-2.68,6.77-1.31-1.96-2.61-3.91-4.63-6.93-7.51-.33-16.47-1.03-25.44-1.05-12.02-.02-24.04.79-36.06.69-9.8-.09-19.59-1.28-29.39-1.45-9.9-.17-19.8.44-29.7.42-2.97,0-5.94-1.01-8.91-1.55.04-.76.08-1.51.12-2.27,3.3-.19,6.67-.91,9.89-.48,9.29,1.22,16.69-1.72,23.73-7.85,23.61-20.55,47.76-40.48,71.28-61.13,6.73-5.91,12.01-13.45,18.16-20.09,5.59,3.75,3.75,5.86,1.54,7.86-8.39,7.59-16.65,15.33-25.25,22.69-22.03,18.85-44.21,37.53-66.32,56.29-.35.29-.56.74-1.85,2.5,12.18,0,23.22.08,34.25-.1,1.39-.02,2.92-1.24,4.11-2.23,16.49-13.62,32.98-27.23,49.33-41.01,3.09-2.6,5.92-2.66,9.96-.58-17.97,14.47-35.65,28.7-54.38,43.79,8.28,0,15.35-.04,22.42.01,4.77.03,8.57-1.29,12.16-4.95,5.3-5.4,11.62-9.79,17.26-14.89,1.53-1.39,2.98-3.74,3.06-5.71.6-14.8,1.22-29.61,1.12-44.41-.12-17.29-.97-34.57-1.52-51.86-.03-.81-.27-1.61-.53-3.09-33.12,31.55-67.95,60.05-104.48,86.52-9.72,7.05-19.07,14.65-28.17,22.48-2.01,1.72-2.68,5.4-3.21,8.32-.52,2.89.35,6.03-.18,8.91-.38,2.05-2.09,3.85-3.26,5.86-1.23-.93-1.71-1.12-1.71-1.32-.16-8.1-.36-16.2-.37-24.3-.03-17.29.1-34.58-.06-51.87,0-1.06-2-2.09-3.06-3.14-.59.3-1.17.6-1.76.9.63,28.33,1.26,56.65,1.89,85.11,7.71,0,15.25.14,22.78-.02,41.89-.94,83.78-3.48,125.61,1.19,2.07.23,5.95-1.01,5.25,2.96-.21,1.21-4.42,2.91-6.34,2.46-20.48-4.82-41.26-2.89-61.88-2.69-28.45.28-56.9,1.67-85.35,2.64-6.04.21-5.93-.52-5.72-6.67.4-11.61-.2-23.26-.52-34.89-.12-4.56-.79-9.1-.89-13.65-.49-20.83-.74-41.67-1.38-62.5-.14-4.5-.17-8.12,4.35-10.83,3.65-2.19,4.95-5.97,4.73-10.52-.28-5.78.3-11.6.43-17.4.02-.77-.39-1.55-.59-2.32-.49-.12-.97-.23-1.46-.35Zm7.86,55.64c2.35-1.96,3.71-3.03,5-4.18,18.33-16.36,36.48-32.92,55.02-49.05,23.6-20.54,47.56-40.66,71.17-61.18,2.43-2.12,4.86-5.7,5.02-8.72.79-15.13.86-30.31,1.1-45.47.11-6.9.02-13.8.02-22.09-3.2,3.42-5.46,5.82-7.72,8.22-5.8,6.18-11.19,12.81-17.45,18.48-35.9,32.49-72.02,64.74-108.01,97.12-1.8,1.62-4.27,3.62-4.49,5.65-.94,8.95-1.17,17.98-1.72,28.12,2.19-1.62,3.21-2.27,4.11-3.06,26.76-23.35,53.92-46.28,80.13-70.24,16.28-14.88,31.11-31.35,46.68-47.02,1.55-1.56,3.7-2.54,5.58-3.78.56.49,1.12.97,1.68,1.46-1.13,2.09-1.83,4.61-3.45,6.2-17.14,16.84-33.96,34.05-51.78,50.15-25.7,23.21-52.19,45.55-78.27,68.35-1.87,1.63-4.37,4.03-4.35,6.05.06,7.89,1.01,15.78,1.74,24.99Zm-2.39-96.41c2.19-1.95,3.49-3.01,4.68-4.19,17.27-16.98,34.54-33.97,51.8-50.96,13.97-13.76,28.23-27.24,41.81-41.38,9.78-10.19,18.59-21.3,28.01-31.85,1.62-1.81,4.12-2.84,6.21-4.23l1.9,1.94c-2.09,3-3.77,6.41-6.34,8.93-20.67,20.29-38.72,43.02-60.65,62.22-20.19,17.67-37.97,38.07-57.91,56.06-10.21,9.21-9.43,19.51-9.09,31.77,2.47-1.82,4.08-2.85,5.52-4.08,19.01-16.39,38.15-32.64,56.96-49.26,25.44-22.48,50.89-44.98,72-71.76,2.2-2.79,3.75-6.95,3.74-10.47-.05-19.4-.67-38.8-1.14-58.2-.01-.43-.44-.85-.86-1.61-.84.94-1.54,1.67-2.18,2.44-7.58,9.09-14.57,18.78-22.84,27.19-34.68,35.27-66.73,73.15-104.53,105.32-6.39,5.43-10.22,11.22-7.86,20.02.9,3.33.49,7.02.76,12.09Zm-3.65-49.3q-1.28-5.44,3.36-10.11c36.26-36.74,72.72-73.3,104.77-113.9,1.22-1.55,2.36-3.16,4.06-5.43-4.74,0-8.3.25-11.81-.05-7.28-.63-13.02,1.81-17.69,7.45-6.64,8.04-13.29,16.09-20.36,23.74-18.84,20.37-37.87,40.56-56.92,60.73-3.91,4.14-5.69,8.83-5.31,14.42.17,2.47.49,4.94.42,7.4-.09,3.31-1.08,6.16-5.74,7.05,0-11.14.31-21.86-.09-32.55-.4-10.73-1.49-21.44-2.28-32.15-1.01,43.88-.52,87.7,1.57,131.47.86.15,1.72.31,2.58.46.95-2.71,2.66-5.42,2.68-8.13.03-5.62-.26-11.38-1.48-16.85-1.7-7.69.51-12.23,6.86-17.49,39.32-32.57,73.2-70.66,107.79-107.99,8.65-9.33,16.84-19.08,24.99-28.85,1.23-1.47,1.79-4.3,1.29-6.11-.31-1.11-3.2-1.86-5.02-2.11-2.61-.35-5.3,0-7.95-.1-4.37-.17-7.8,1.31-10.64,4.76-34.93,42.26-73.75,80.99-110.93,121.2-1.09,1.18-2.59,1.99-4.15,3.16Zm141.33,35.29c-2.04,1.42-3.22,2.1-4.24,2.98-41.74,36.01-83.51,72-125.11,108.16-2.49,2.17-4.84,5.65-5.26,8.79-.83,6.14-.24,12.47-.24,19.55,2.06-1.23,3.32-1.79,4.37-2.63,30.18-24.23,60.43-48.36,90.45-72.79,12.44-10.13,24.37-20.89,36.49-31.41.72-.62,1.5-1.61,1.56-2.48.72-9.65,1.3-19.31,1.99-30.17Zm-142-75.14c.71.2,1.42.4,2.13.6,27.22-29.64,54.44-59.28,82.48-89.82-8.87,0-15.93-.47-22.87.2-3.58.34-7.76,1.9-10.27,4.34-6.28,6.12-11.8,13.03-17.55,19.69-11.49,13.33-22.93,26.7-34.38,40.07-.54.63-1.3,1.44-1.26,2.12.49,7.61,1.12,15.2,1.72,22.8Zm11.11-87.04c-2.92-.15-5.53-.12-8.09-.45-4.56-.58-6.4,1.22-6.37,5.85.07,10.6-.37,21.21-.23,31.8.09,6.44.9,12.87,1.49,20.69,19.47-18.01,32.37-39.57,49.42-59.59-9.33.56-17.26.65-25.06,1.7-2.78.38-5.88,2.58-7.7,4.85-3.86,4.8-6.86,10.28-10.44,15.31-1.17,1.65-3.07,2.78-4.63,4.15-.41-.35-.82-.71-1.24-1.06,1.52-8.91,9.82-14.23,12.85-23.26Zm134.38,341.72c-.42-.34-.84-.68-1.26-1.01-5.55,5.15-11.1,10.29-17.51,16.25h18.77v-15.23ZM348.94,23.2c23.53,1,47.07,3.32,70.52.47-.01-.79-.03-1.58-.04-2.37-23.49.63-46.99,1.27-70.48,1.9Zm-73.5,260.88c-3.95,2.47-4.24,18.75-.79,29.03,5.63-10.3.83-19.46.79-29.03Zm.74-63.13c-5.14,3.61-6.12,15.08-3.34,23.37.52.04,1.04.09,1.55.13.56-7.4,1.12-14.81,1.78-23.5ZM422.64,37.73c-.22-.07-.45-.14-.67-.21v26.46c.22,0,.45,0,.67,0v-26.25Z"/>
  <path class="cls-2" d="m182.69,150.55c4.6-2.39,5.35.28,5.44,4.04.36,15.18.62,30.37,1.22,45.54.39,9.87,1.15,19.74,2.09,29.58.26,2.69,1.74,5.26,2.77,8.18-3.89,2.24-7.27,6.79-12.21,1.31-.7-.78-2.71-.56-4.1-.5-36.57,1.54-73.16,2.94-109.72,4.78-13.23.66-26.42,2.31-39.61,3.68-2.2.23-4.38,1.1-6.44,2-3.27,1.43-5.88-.22-5.83-3.86.24-17.98-.38-36.02.88-53.92,2.32-33.08-4.68-65.85-2.42-98.85,1.32-19.23,2.05-38.41.27-57.63-.23-2.46-.56-4.9-.89-7.35-.51-3.8,1.6-5.28,4.93-5.13,12.63.58,25.28,2.07,37.89,1.84,31.47-.57,62.94-1.69,94.39-3.06,9.14-.4,18.23-2.36,27.32-3.72,1.3-.19,3.01-.67,3.66-1.62,3.11-4.49,4.98-1.96,6.25,1.14.96,2.36,1.46,5.07,1.49,7.63.15,13.22.09,26.45.1,39.67,0,.18.03.36,0,.53-3.12,18.24-2.02,36.54-1.04,54.86.13,2.43-1.74,4.97-2.68,7.46-.55-.07-1.1-.13-1.64-.2-.33-2.09-.86-4.17-.96-6.26-.43-8.99-1.05-17.98-.99-26.97.05-6.65,1.02-13.3,1.63-19.94.24-2.63.79-5.25.86-7.89.27-10.74.4-21.49.58-32.24.09-5.53-2.04-9.53-8.34-11.39.83,1.5,1.37,2.59,2.03,3.62.75,1.17,1.61,2.28,1.61,2.28-.95,5.77-2.3,10.63-2.43,15.53-.24,9.06-.91,17.99,1.76,27.2,1.79,6.18-.74,13.54-1.01,20.39-.63,15.87-1.21,31.74-1.41,47.62-.03,2.52,2.04,5.06,3.1,7.61.57,1.36,1.04,2.77,1.56,4.15-1.02,1.88-2.8,3.71-2.91,5.64-.37,6.5-.19,13.03-.1,19.55.02,1.16.65,2.3.9,3.48.38,1.77.96,3.55.94,5.32-.03,4.52-.66,9.06-.45,13.57.35,7.71,1.05,15.4,1.84,23.08.13,1.28,1.47,2.43,2.6,4.18-1.01-25.8-1.97-50.35-2.92-74.91Zm-91.54,74.85l-1.55-1.75c1.63-2,2.99-4.33,4.94-5.95,23.39-19.44,46.79-38.85,70.37-58.06,5.91-4.82,10.79-9.32,8.32-18.12-.99-3.52.34-7.69.59-11.56.23-3.45.43-6.9.74-11.72-41.91,37.5-84.6,72.13-123.82,110.95,5.52.04,10.72-.85,15.95-1.12,16.07-.84,32.15-1.43,48.22-2.13,6.64-.29,13.02-1.4,18.3-5.91,12.64-10.79,25.33-21.51,37.89-32.39,1.65-1.43,3.64-3.57,3.74-5.47.42-7.83.18-15.69.18-24.3-1.6,1.06-2.49,1.55-3.26,2.18-24.5,20.3-48.96,40.63-73.49,60.88-2.15,1.77-4.74,3-7.13,4.48Zm-60.94-12.5c2.82-2.58,4.38-3.97,5.89-5.41,32.3-30.63,64.59-61.25,96.87-91.9,11.39-10.81,22.88-21.51,34.01-32.57,5.89-5.85,8.97-12.92,6.65-21.63-.75-2.83-.41-5.97-.44-8.97-.06-5.33-.02-10.66-.02-16.06-.32.2-.82.38-1.14.72-20.93,21.77-41.68,43.7-62.8,65.28-25.45,26.01-51.22,51.69-76.78,77.6-1.66,1.68-3.7,4.08-3.69,6.13.05,8.41.83,16.81,1.43,26.79Zm-2.39-34.93c13.88-14.33,26.29-27.41,38.98-40.2,31.49-31.75,63.13-63.36,94.64-95.09,2.76-2.78,4.97-6.09,8.03-9.88-5.82-.31-10.48-.06-14.95-.9-10.62-1.99-17.93,2.73-23.96,10.67-.43.56-.95,1.05-1.42,1.58-8.65,9.79-16.99,19.88-26.01,29.31-23.33,24.39-46.97,48.48-70.45,72.73-1.2,1.24-2.73,2.79-2.88,4.31-.84,8.67-1.3,17.38-1.98,27.47Zm147.44-96.16c-1.64,1.31-2.21,1.71-2.71,2.18-24.25,22.99-48.58,45.91-72.73,69.01-22.09,21.13-44.09,42.37-65.85,63.84-2.34,2.31-3.44,6.32-4.1,9.74-.62,3.22,1.47,5.75,5.06,4.72,3.74-1.07,7.92-2.23,10.73-4.69,12.61-11.08,24.6-22.87,37.19-33.99,27.71-24.45,55.63-48.66,83.49-72.94,4.52-3.94,8.5-8.32,8.83-14.54.39-7.35.09-14.74.09-23.33Zm-44.82-50.2c-10.48,1.6-21.38-.56-30.63,10.36-16.41,19.36-34.82,37.08-52.86,55.01-6.74,6.7-9.03,17.06-18.32,21.49-.22.11-.34.63-.34.96-.02,7.41-.01,14.82-.01,23.63,3.04-2.89,4.87-4.53,6.57-6.27,18.02-18.45,36.1-36.86,54-55.42,10.65-11.04,21.27-22.13,31.38-33.66,4.09-4.66,6.76-10.56,10.21-16.1Zm-32.09,4.21c-.31-.44-.63-.88-.94-1.32-4.03,0-8.16-.54-12.07.16-3.47.63-7.48,1.83-9.89,4.17-12.91,12.53-25,25.9-38.14,38.17-10.57,9.87-10.26,21.83-9.3,36.12,22.39-27.96,49.49-49.8,70.35-77.31Zm87.61,193.05c-3.34.15-6.46.42-9.57.39-12.01-.09-24.04-.79-36.03-.33-21.36.82-42.7,2.16-64.04,3.58-15.85,1.05-31.67,2.57-47.5,3.89-3.25.27-6.37.75-6.27,6.06,11.67-.74,23.09-1.5,34.52-2.17,32.62-1.92,65.25-3.88,97.88-5.65,8.99-.49,18.02-.39,27.03-.58,3.64-.08,5.01-1.78,3.97-5.19ZM27.81,76.41c13.51-12.41,27.62-25.37,42.63-39.15-11.37-1.92-20.87-3.79-27.38,6.77-2,3.24-4.83,6.19-7.85,8.55-8.9,6.96-8.25,16.22-7.4,23.83Zm147.75,114.35c-13.26,11.02-25.88,21.52-39.36,32.73,7.24.53,13.04,1.44,18.79,1.17,3.08-.15,6.3-1.97,9.01-3.72,2.47-1.6,4.11-4.42,6.51-6.19,8.52-6.27,7.78-14.43,5.06-24ZM22.7,69.21c-.62,0-1.23,0-1.85,0-1.44,26.64-1.71,53.28.21,79.9.55,0,1.09,0,1.64,0v-79.9Zm-1.71-9.18c5.87-8.96,5.13-18.26,1.79-28.48,8.86-.42,17.09-.81,25.32-1.2-.04-.83-.07-1.66-.11-2.48-8,0-16.01-.14-24,.17-1.05.04-2.85,2.37-2.88,3.67-.25,9.44-.13,18.88-.13,28.32Zm33.81-31.68c-.01.95-.02,1.89-.03,2.84,21.5,2.66,42.77-2.82,64.18-2.84H54.81Zm-25.63,22.39c.52.44,1.03.89,1.55,1.33,4.44-5.21,8.88-10.43,14.02-16.47q-12.55-1-14.59,8.97c-.41,2.04-.66,4.11-.98,6.16Zm-6.46,180.89c.55.05,1.09.09,1.64.14,2.92-5.6-.49-11.78-.03-17.6.49-6.26.11-12.59.11-18.9-.57,0-1.15,0-1.72.01v36.35ZM147.08,26.44c.03.38.06.76.09,1.13,7.57,0,15.13.09,22.69-.1,1.19-.03,2.35-1.36,3.52-2.08-1.14-.7-2.36-2.09-3.41-1.98-7.65.84-15.26,1.98-22.89,3.02Zm30.97,188.33c-3.79,3.25-6.84,5.85-10.79,9.23,3.03,0,4.72,0,6.41,0s3.41,0,5.01,0c-.21-3.05-.38-5.48-.63-9.23ZM22.57,168.71c2.82-7.08,2.41-14.58-1.43-17.43.5,6.05.95,11.52,1.43,17.43Z"/>
  <path class="cls-2" d="m186.65,391.94c3.27,1.34,5.29,2.16,7.31,2.98-.81,1.83-1.22,4.75-2.53,5.24-2.24.84-5.12.47-7.62.03-2.41-.42-4.71-2.35-7.03-2.3-39.4.95-78.79,2.05-118.19,3.27-10.23.31-20.47.89-30.65,1.87-2.16.21-4.1,2.75-7.1,4.9-2.11-5.75-4.25-11.57-6.7-18.23,1.47-.31,4.21-1.32,6.98-1.43,50.33-1.91,100.66-3.71,150.99-5.55,5.3-.19,10.6-.71,15.88-.54,1.69.05,3.32,1.82,4.98,2.8-1.24,1-2.64,1.87-3.68,3.05-1.15,1.3-1.97,2.9-2.62,3.9Zm-163.21,2.89c-.05.51-.1,1.02-.14,1.53,1.62.44,3.25,1.28,4.87,1.26,4.41-.05,8.82-.6,13.24-.7,33.59-.75,67.18-1.35,100.77-2.19,12.01-.3,24.02-1.09,36.01-1.85,1.14-.07,2.19-1.55,3.28-2.38-1.07-1.14-2-2.51-3.28-3.32-.75-.48-2.06-.07-3.12-.04-22.8.66-45.61,1.01-68.39,2.05-25.95,1.19-51.87,2.97-77.8,4.55-1.83.11-3.62.72-5.43,1.09Z"/>
  <path class="cls-2" d="m266.31,609.41c1.56-.35,4.01-1.33,6.48-1.37,19.09-.36,38.19-.38,57.28-.81,31.63-.71,63.25-1.64,94.87-2.52,1.35-.04,3.45-.09,3.9-.87,2.91-5.09,5.15-1.38,7.44.4,2.33,1.81,4.08,3.49.11,5.88-3.15,1.9-3.35,8.82-1.11,11.81.81,1.08,1.58,2.77,1.3,3.91-.21.86-2.08,1.5-3.32,1.85-1.15.33-2.48.34-3.68.15-23.32-3.71-46.76-2.51-70.2-1.98-10.06.22-20.15-.35-30.2.06-16.76.69-33.51,1.73-50.24,2.93-10.02.72-11.41-.67-10.37-10.67.26-2.51-1.28-5.21-2.24-8.76Zm7.92,14.42c7.03-.76,13.84-1.99,20.68-2.14,15.38-.35,30.76-.13,46.14-.21,20.49-.11,40.98-.25,61.48-.43,7.24-.06,14.48-.27,21.72-.4,3.51-.07,5.09-1.91,5.11-5.35.02-3.5-1.78-5.19-5.14-5.43-2.64-.19-5.3-.51-7.94-.44-36.76,1.03-73.53,2.12-110.29,3.2-8.31.24-16.62.36-24.91.81-7.27.39-8.32,1.97-6.85,10.4Z"/>
  <path class="cls-2" d="m19.26,631.06c1.66-.76,3.32-1.51,5.31-2.42-.54-1.99-1.11-3.97-1.61-5.98-1.47-5.94.39-8.41,6.5-8.28,6.71.13,13.42.83,20.12.7,46.3-.87,92.6-1.91,138.9-2.8,2.86-.05,5.74.79,8.61,1.22l.26,1.46c-1.38.81-2.94,1.42-4.09,2.48-1.16,1.07-2.74,2.66-2.61,3.87.12,1.21,2.07,2.3,3.35,3.27.5.38,1.51.06,2.03.43,1,.71,1.83,1.68,2.72,2.54-1.19.83-2.27,1.96-3.58,2.42-2.28.78-4.69,1.29-7.08,1.62-1.03.14-2.18-.38-3.24-.7-2.19-.66-4.39-2.06-6.53-1.97-42.2,1.67-84.4,3.52-126.6,5.3-8.3.35-16.6.76-24.9.71-2.6-.01-5.18-1.42-7.78-2.19.08-.56.15-1.12.23-1.68Zm9.73-2.04c2.43,0,4.35.05,6.26,0,35.18-1.08,70.36-2.14,105.53-3.27,13.43-.43,26.87-.91,40.28-1.66,1.57-.09,4.01-1.81,4.35-3.19.68-2.71-1.43-3.97-4.14-3.94-.88,0-1.77-.14-2.65-.12-15.56.39-31.12.88-46.68,1.17-29.87.56-59.75.99-89.63,1.54-4.64.08-9.27.47-14.12.72.31,3.43.51,5.7.79,8.75Z"/>
  <path class="cls-2" d="m498.47,330.2c1.29,1.92,3.78,3.98,3.57,5.72-.23,1.91-2.94,3.52-4.57,5.26-1.54-1.61-4.14-3.11-4.32-4.86-.2-1.88,1.86-4.01,2.94-6.03.8-.03,1.59-.06,2.39-.09Z"/>
  <path class="cls-2" d="m193.39,134.8c-3.18,1.99-5.05,4.08-6.54,3.84-1.59-.26-2.82-2.72-4.21-4.22,1.5-1.36,2.91-3.67,4.52-3.81,1.5-.14,3.2,2.03,6.23,4.19Z"/>
  <path class="cls-2" d="m275.9,272.48c-3.02,2.07-4.81,4.24-6.29,4.05-1.53-.2-3.58-2.58-3.83-4.24-.17-1.13,2.35-3.73,3.69-3.76,1.67-.03,3.36,1.94,6.43,3.94Z"/>
  <path class="cls-2" d="m677.77,199.59c-3.09,2.03-4.74,3.95-6.4,3.94-1.37,0-3.99-2.5-3.82-3.49.3-1.71,2.2-4.12,3.72-4.35,1.49-.23,3.34,1.88,6.5,3.9Z"/>
  <path class="cls-2" d="m425.92,241.91c-2.66,1.98-4.18,3.99-5.57,3.9-1.49-.09-2.85-2.16-4.27-3.36,1.33-1.52,2.43-3.79,4.07-4.29,1.11-.34,2.98,1.83,5.77,3.75Z"/>
  <path class="cls-2" d="m503.63,277.92c-1.69-2.42-3.53-3.91-3.39-5.18.15-1.36,2.16-2.52,3.36-3.77,1.33,1.31,3.37,2.44,3.76,3.99.25,1.01-1.87,2.62-3.73,4.96Z"/>
  <path class="cls-1" d="m600.83,609.32c-.77.93-1.53,1.87-3.11,3.78,9.45,0,17.52.12,25.57-.06,3.59-.08,5.88.94,6.02,4.77,10.71-7.41,21.56-.91,32.25-.54.7.02,1.32,2.68,2.76,5.85-11.4.19-21.38.37-31.37.52-20.17.3-40.34.86-60.5.78-20.29-.08-40.59-.79-61.12-1.23v-7.62c6.76,0,13.33.04,19.91-.09.41,0,.79-1.35,1.64-2.91-2.61-.32-4.57-.62-6.54-.77-1.93-.14-3.91.1-5.8-.22-11.56-1.91-11.58-1.99-10.43-13.08,3.64-1.74,7.11-2.93,10.07-4.87,38.6-25.37,76.23-52.02,111.02-82.53,7.41-6.5,15.87-11.83,23.84-17.69,1.99-1.46,5.72-2.37,3.09-5.66-.6-.76-4.83.31-6.52,1.64-26.09,20.62-51.61,41.97-78.15,62-17.45,13.17-36.29,24.49-54.52,36.63-2.76,1.84-5.55,3.63-7.92,5.18,0-10.18-.45-20.68.3-31.1.2-2.83,3.52-6.12,6.25-7.97,24.69-16.81,49.84-32.96,74.3-50.09,15.04-10.54,29.08-22.51,43.62-33.76,5.73-4.43,11.64-8.64,17.45-12.99,1.27-.95,2.78-1.84,3.52-3.13.67-1.16.44-2.84.61-4.3-1.43.03-3.16-.44-4.24.2-2.26,1.34-4.18,3.24-6.22,4.93-31.6,26.19-63.35,52.18-98.39,73.81-12.15,7.5-24.3,14.99-37.36,23.05.42-8.94-.01-17.9,1.64-26.47.74-3.84,5.16-7.6,8.78-10.16,17.17-12.15,34.99-23.39,51.92-35.86,26.6-19.6,52.66-39.92,78.94-59.96,2.39-1.82,4.82-3.63,6.97-5.72,1.55-1.51,2.65-3.47,3.96-5.22-.34-.52-.68-1.04-1.02-1.57-2.4.96-5.4,1.3-7.11,2.96-29.69,28.88-63.7,52.2-97.64,75.57-14.95,10.29-30.18,20.16-45.42,30.31-2.22-5.96,1.33-14.03-5.75-20.47-.39,3.09-.83,4.79-.78,6.48.4,13.05.89,26.09,1.35,39.13.04,1.24.2,2.48.13,3.71-.6,10.65-1.48,21.3-1.79,31.96-.19,6.51.92,13.07.6,19.56-.25,5.03.5,10.75-3.99,14,1.91,3.74,3.78,7.42,5.73,11.25-8.6,3.16-9.14,2.8-9.02-4.92.64-42.4,1.39-84.8,1.9-127.19.27-22.61.15-45.23.22-67.84,0-1.04.14-2.08.24-3.54,2.07.32,3.91.61,5.6.88-.69,17.59-1.36,34.83-2.03,52.07.7.21,1.41.42,2.11.63,1.15-2.98,3.19-5.93,3.29-8.94.49-14.47.28-28.96.78-43.43.09-2.59,1.64-5.96,3.65-7.54,46.29-36.41,92.75-72.6,139.13-108.9,2.63-2.06,5.08-4.44,7.18-7.03,1.14-1.41,1.35-3.57,2.32-6.39-51.44,40.01-101.75,79.15-152.9,118.94-.83-27.18-1.63-53.65-2.45-80.31,6.47-.54,12.34-1.17,14.37-8.2.17-.6.9-1.07,1.44-1.52,13.89-11.51,27.29-23.68,41.79-34.36,32.13-23.66,62.56-49.15,89.9-78.25,1.63-1.73,3.48-3.24,6.37-5.9-.6,10.41-1.65,19.32-1.47,28.2.2,9.3-3.34,15.79-10.53,21.61-39.58,32.04-78.88,64.42-118.28,96.68-5.88,4.82-11.87,9.53-17.57,14.55-1.42,1.25-1.91,3.54-2.82,5.35.73.57,1.47,1.14,2.2,1.71,52.21-42.88,104.42-85.77,156.4-128.46,1.81,3.71,2.9,77.92.3,90.08-.69-20.66-1.38-41.32-2.08-61.98l-2.88-.56c-.7,1.56-2.07,3.16-1.99,4.69.35,6.86,1.35,13.7,1.67,20.56.98,21.16,1.66,42.34,2.7,63.5.15,3.09-.14,4.84-3.36,5.98-2.23.8-4.38,2.46-6,4.25-14.23,15.74-31.48,27.9-48.27,40.57-33.45,25.24-67.08,50.24-100.87,75.52-.86-1-2.02-2.33-3.18-3.67-.5.21-1.01.41-1.51.62.19,3.71.39,7.41.65,12.3,2.56-1.36,4.44-2.05,5.95-3.22,25.04-19.33,49.9-38.89,75.08-58.03,14.5-11.02,29.83-20.96,44.16-32.17,11.53-9.03,22.12-19.25,33.15-28.93,1.15-1.01,2.44-1.86,4.85-3.68-.55,10.96-1.3,20.71-1.5,30.46-.79,38.31-1.51,76.63-2.02,114.94-.13,10.05.41,20.13,1.01,30.17.34,5.71-2.69,8.78-6.7,12.19-11.56,9.85-22.38,20.58-34.09,30.26-9.25,7.65-19.31,14.32-29.13,21.26-3.5,2.47-5.84,5.02-3.75,9.57,3.28-1.57,6.42-3.08,9.57-4.59l-.1-.06Zm-47.02-1.02c-.19-.57-.39-1.13-.58-1.7,36.74-29.56,73.48-59.13,110.58-88.98-5.21-2.71-5.84-2.78-9-.01-5.18,4.54-10.03,9.48-15.36,13.82-29.2,23.74-58.42,47.47-87.91,70.86-3.62,2.87-8.87,3.7-13.38,5.44-1.96.76-3.96,1.43-7.33,2.63,3,1.18,4.43,2.19,5.9,2.25,15.01.59,30.02,1.11,45.03,1.4,1.49.03,3.01-1.55,4.52-2.39-.21-.54-.42-1.08-.64-1.61-10.61-.57-21.22-1.13-31.83-1.7Zm109.25-278.36c-.77-.67-1.55-1.34-2.32-2.01-3.04,2.67-6.09,5.31-9.12,8-41.03,36.42-82.75,71.94-129.13,101.59-3.54,2.26-6.63,5.27-9.73,8.14-.74.69-.67,2.26-.97,3.43,1.22-.03,2.74.4,3.6-.17,3.53-2.34,6.81-5.03,10.26-7.49,20.28-14.51,41.21-28.2,60.71-43.69,24.92-19.79,48.73-40.97,72.91-61.69,1.74-1.49,2.55-4.05,3.8-6.11Zm-1.59-84c-1.86,3.16-3.74,4.95-3.46,6.3.29,1.4,2.58,3.08,4.16,3.28.98.12,3.18-2.32,3.17-3.6,0-1.5-1.82-3-3.87-5.98Z"/>
  <path class="cls-1" d="m505.49,242.99c-.51-8.15-1.17-15.29-1.25-22.44-.02-1.51,1.79-3.36,3.2-4.51,13.19-10.69,26.35-21.4,39.75-31.82,35.9-27.93,69.77-58.19,102.95-89.25,2.02-1.89,4.25-3.56,7.35-6.15.37,12.21.92,23.2.83,34.19-.02,1.96-2.41,4.15-4.11,5.83-36.34,35.79-78.39,64.33-119.68,93.84-9.31,6.65-18.75,13.12-29.04,20.31Z"/>
  <path class="cls-1" d="m502.85,181.31v-32.54c2.66-1.61,5.11-2.78,7.19-4.41,9.44-7.41,19.15-14.54,28.09-22.52,32.44-28.95,64.61-58.2,96.88-87.34.79-.71,1.58-1.42,2.29-2.2,6.36-7.04,15.25-5.51,18.95,3.42,1.61,3.9.93,7.45-2.25,10.64-33.52,33.72-66.02,68.51-105.05,96.29-12.08,8.6-23.27,18.47-34.73,27.92-3.78,3.12-7.15,6.73-11.37,10.75Z"/>
  <path class="cls-1" d="m504.97,211.07c-.24-3.71-.35-6.17-.58-8.62-1.53-16.59-1.87-16.99,11.2-27.63,20.69-16.84,42.21-32.66,62.72-49.71,14.07-11.71,27.13-24.64,40.41-37.28,11.64-11.08,22.94-22.52,34.42-33.76.83-.81,1.96-1.31,4.61-3.04,0,10.4.31,19.46-.21,28.48-.14,2.38-2.5,5.01-4.47,6.84-44.35,41.32-90.18,80.91-138.67,117.36-2.91,2.19-5.75,4.48-9.42,7.36Z"/>
  <path class="cls-1" d="m502.68,142.98c0-7.9-.76-14.52.29-20.84.62-3.74,3.43-7.74,6.38-10.37,19.09-17.05,38.57-33.66,57.75-50.61,12.96-11.46,25.54-23.36,38.54-34.77,1.93-1.7,5.3-2.65,7.93-2.51,6.67.34,13.29,1.5,21.16,2.49-2.75,2.91-4.83,5.12-6.93,7.31-26.92,28.11-56.18,53.68-85.93,78.7-11.32,9.52-23.08,18.51-34.66,27.71-.93.74-2,1.29-4.52,2.9Z"/>
  <path class="cls-1" d="m584.72,23.27c4.03-.42,7.16-.75,10.96-1.15-1.31-1.38-2.28-2.39-3.54-3.71h9.76c-2.28,3.76-3.47,7.24-5.86,9.44-17.02,15.64-34.26,31.06-51.48,46.48-12.5,11.19-25.07,22.3-37.62,33.43-1.15,1.02-2.4,1.91-4.99,3.96.96-11.46,1.62-21.53,2.8-31.53.23-1.98,2.13-4.07,3.77-5.53,16.78-14.88,33.72-29.57,50.49-44.46,4.29-3.81,8.68-5.75,14.48-3.97,1.94.6,4.31.57,6.28.05,1.4-.37,2.46-2.03,3.67-3.11-1.43-.56-2.82-1.5-4.29-1.61-9.23-.73-18.49-1.25-27.73-1.91-1.18-.08-2.33-.61-4.7-1.26h41.22c-.97,1.48-1.76,2.67-3.21,4.88Z"/>
  <path class="cls-1" d="m600.93,609.38c.36-.96.44-2.25,1.12-2.82,20.45-16.82,40.96-33.57,61.48-50.31.49-.4,1.17-.58,2.63-1.27,0,8.66.13,16.69-.11,24.71-.04,1.48-1.27,3.28-2.48,4.31-8.48,7.2-16.88,14.51-25.78,21.16-3,2.24-7.32,3.45-11.14,3.72-8.57.61-17.21.34-25.81.43,0,0,.11.07.11.07Z"/>
  <path class="cls-1" d="m504.82,72.04c0-9.21-.09-16.75.1-24.29.03-1.2,1.13-2.6,2.11-3.5,7.31-6.66,14.63-13.31,22.17-19.72,1.47-1.25,3.91-2.09,5.82-1.96,6.47.46,12.9,1.43,19.35,2.21.27.53.54,1.06.81,1.59-16.46,14.93-32.92,29.86-50.34,45.66Z"/>
  <path class="cls-1" d="m671.13,394.4c-3.34,42.66,5.25,85.46-1.9,128.07-1.39-42.71-2.95-85.42,1.9-128.07Z"/>
  <path class="cls-1" d="m665.83,610.43h-23.72c-.15-.54-.3-1.07-.45-1.61,7.82-6.36,15.63-12.72,24.16-19.66v21.27Z"/>
  <path class="cls-1" d="m504.61,21.53h19.91c-7.03,6.6-13.12,12.32-19.91,18.7v-18.7Z"/>
  <path class="cls-1" d="m664.95,29.44c0,3.44-.11,6.88.02,10.31.41,10.4,1.06,20.78,1.28,31.18.04,2.06-1.42,4.15-2.19,6.22-.67-.18-1.34-.37-2.02-.55,0-9.57.03-19.14-.02-28.71-.02-4.03-.42-8.07-.25-12.09.1-2.25,1.01-4.47,1.55-6.71.54.12,1.08.24,1.61.35Z"/>
  <path class="cls-1" d="m496.54,79.16c-.41-6.61-.98-13.22-1.11-19.83-.03-1.34,1.6-2.7,2.47-4.06.69,1.29,1.88,2.53,1.99,3.87.34,4.18.59,8.42.25,12.58-.22,2.7-1.52,5.3-2.33,7.95-.42-.17-.85-.34-1.27-.51Z"/>
  <path class="cls-1" d="m665.85,25.57c-5.12-1.52-8.92-2.64-12.71-3.76,0-.55,0-1.09,0-1.64,3.26-.2,6.59-.85,9.74-.36,1.08.17,1.71,3.19,2.97,5.76Z"/>
  <path class="cls-1" d="m495.84,48.3l.58-10.71c.48-.2.95-.4,1.43-.61.78,1.58,2.32,3.23,2.17,4.72-.24,2.44-1.57,4.77-2.44,7.15-.58-.18-1.17-.36-1.75-.54Z"/>
  <path class="cls-1" d="m282.19,304.68c-.73-9.21-1.68-17.1-1.74-24.99-.02-2.02,2.48-4.42,4.35-6.05,26.07-22.8,52.56-45.14,78.27-68.35,17.83-16.09,34.64-33.3,51.78-50.15,1.62-1.59,2.32-4.11,3.45-6.2-.56-.49-1.12-.97-1.68-1.46-1.87,1.25-4.02,2.22-5.58,3.78-15.57,15.67-30.4,32.14-46.68,47.02-26.21,23.96-53.36,46.89-80.13,70.24-.9.79-1.92,1.44-4.11,3.06.55-10.14.78-19.17,1.72-28.12.21-2.03,2.69-4.03,4.49-5.65,35.99-32.39,72.11-64.64,108.01-97.12,6.26-5.67,11.66-12.29,17.45-18.48,2.25-2.41,4.51-4.81,7.72-8.22,0,8.29.09,15.19-.02,22.09-.24,15.16-.31,30.33-1.1,45.47-.16,3.02-2.58,6.6-5.02,8.72-23.61,20.52-47.57,40.64-71.17,61.18-18.53,16.13-36.69,32.69-55.02,49.05-1.29,1.15-2.65,2.22-5,4.18Z"/>
  <path class="cls-1" d="m279.8,208.27c-.27-5.07.14-8.76-.76-12.09-2.37-8.8,1.47-14.59,7.86-20.02,37.8-32.16,69.85-70.04,104.53-105.32,8.27-8.42,15.26-18.1,22.84-27.19.64-.77,1.34-1.5,2.18-2.44.42.76.85,1.18.86,1.61.46,19.4,1.09,38.8,1.14,58.2,0,3.52-1.54,7.68-3.74,10.47-21.11,26.78-46.57,49.29-72,71.76-18.81,16.62-37.94,32.87-56.96,49.26-1.43,1.24-3.05,2.26-5.52,4.08-.34-12.26-1.13-22.55,9.09-31.77,19.94-17.98,37.72-38.38,57.91-56.06,21.93-19.2,39.98-41.93,60.65-62.22,2.57-2.52,4.25-5.93,6.34-8.93l-1.9-1.94c-2.09,1.39-4.6,2.42-6.21,4.23-9.42,10.54-18.23,21.66-28.01,31.85-13.58,14.13-27.84,27.62-41.81,41.38-17.26,16.99-34.52,33.98-51.8,50.96-1.19,1.17-2.49,2.24-4.68,4.19Z"/>
  <path class="cls-1" d="m276.15,158.97c1.55-1.17,3.05-1.97,4.15-3.16,37.18-40.21,76-78.94,110.93-121.2,2.85-3.45,6.28-4.93,10.64-4.76,2.65.11,5.34-.25,7.95.1,1.82.24,4.71,1,5.02,2.11.5,1.82-.06,4.64-1.29,6.11-8.15,9.77-16.34,19.52-24.99,28.85-34.59,37.33-68.47,75.42-107.79,107.99-6.35,5.26-8.56,9.8-6.86,17.49,1.21,5.47,1.51,11.23,1.48,16.85-.02,2.72-1.73,5.42-2.68,8.13-.86-.15-1.72-.31-2.58-.46-2.08-43.77-2.58-87.59-1.57-131.47.79,10.72,1.89,21.42,2.28,32.15.4,10.69.09,21.41.09,32.55,4.66-.89,5.65-3.74,5.74-7.05.07-2.46-.26-4.93-.42-7.4-.38-5.6,1.4-10.29,5.31-14.42,19.05-20.17,38.08-40.37,56.92-60.73,7.07-7.65,13.72-15.7,20.36-23.74,4.67-5.65,10.4-8.08,17.69-7.45,3.51.3,7.06.05,11.81.05-1.69,2.27-2.83,3.88-4.06,5.43-32.05,40.6-68.51,77.16-104.77,113.9q-4.62,4.68-3.36,10.11Z"/>
  <path class="cls-1" d="m417.47,194.25c-.69,10.86-1.27,20.52-1.99,30.17-.06.87-.84,1.86-1.56,2.48-12.12,10.52-24.05,21.28-36.49,31.41-30.01,24.43-60.27,48.57-90.45,72.79-1.04.84-2.31,1.4-4.37,2.63,0-7.08-.58-13.41.24-19.55.42-3.14,2.77-6.62,5.26-8.79,41.61-36.17,83.37-72.15,125.11-108.16,1.02-.88,2.2-1.56,4.24-2.98Z"/>
  <path class="cls-1" d="m275.47,119.11c-.59-7.6-1.23-15.2-1.72-22.8-.04-.68.72-1.49,1.26-2.12,11.44-13.37,22.88-26.74,34.38-40.07,5.74-6.66,11.27-13.56,17.55-19.69,2.5-2.44,6.69-4,10.27-4.34,6.94-.67,14-.2,22.87-.2-28.04,30.54-55.26,60.18-82.48,89.82-.71-.2-1.42-.4-2.13-.6Z"/>
  <path class="cls-1" d="m286.58,32.07c-3.03,9.03-11.33,14.35-12.85,23.26.41.35.82.71,1.24,1.06,1.57-1.37,3.46-2.5,4.63-4.15,3.59-5.03,6.59-10.51,10.44-15.31,1.82-2.27,4.93-4.48,7.7-4.85,7.8-1.06,15.73-1.14,25.06-1.7-17.05,20.02-29.95,41.59-49.42,59.59-.59-7.83-1.4-14.25-1.49-20.69-.15-10.6.3-21.2.23-31.8-.03-4.63,1.81-6.43,6.37-5.85,2.56.33,5.17.3,8.09.45Z"/>
  <path class="cls-1" d="m420.96,373.79v15.23h-18.77c6.42-5.95,11.97-11.1,17.51-16.25.42.34.84.68,1.26,1.01Z"/>
  <path class="cls-1" d="m348.94,23.2c23.49-.63,46.99-1.27,70.48-1.9.01.79.03,1.58.04,2.37-23.45,2.85-46.99.54-70.52-.47Z"/>
  <path class="cls-1" d="m275.44,284.08c.04,9.57,4.85,18.73-.79,29.03-3.45-10.28-3.17-26.56.79-29.03Z"/>
  <path class="cls-1" d="m276.18,220.94c-.66,8.7-1.22,16.1-1.78,23.5-.52-.04-1.04-.09-1.55-.13-2.78-8.29-1.8-19.76,3.34-23.37Z"/>
  <path class="cls-1" d="m422.64,37.73v26.25c-.22,0-.45,0-.67,0v-26.46c.22.07.45.14.67.21Z"/>
  <path class="cls-1" d="m91.16,225.4c2.39-1.48,4.98-2.71,7.13-4.48,24.53-20.25,49-40.58,73.49-60.88.77-.64,1.66-1.12,3.26-2.18,0,8.6.25,16.47-.18,24.3-.1,1.9-2.1,4.04-3.74,5.47-12.56,10.88-25.25,21.61-37.89,32.39-5.29,4.51-11.66,5.63-18.3,5.91-16.07.7-32.15,1.29-48.22,2.13-5.23.27-10.43,1.16-15.95,1.12,39.22-38.82,81.92-73.45,123.82-110.95-.3,4.82-.51,8.27-.74,11.72-.26,3.87-1.58,8.04-.59,11.56,2.46,8.8-2.41,13.31-8.32,18.12-23.57,19.21-46.98,38.63-70.37,58.06-1.95,1.62-3.3,3.95-4.94,5.95l1.55,1.75Z"/>
  <path class="cls-1" d="m30.22,212.9c-.61-9.98-1.38-18.39-1.43-26.79-.01-2.05,2.03-4.45,3.69-6.13,25.55-25.91,51.33-51.59,76.78-77.6,21.12-21.58,41.87-43.52,62.8-65.28.33-.34.82-.52,1.14-.72,0,5.4-.04,10.73.02,16.06.03,3-.31,6.14.44,8.97,2.32,8.72-.75,15.78-6.65,21.63-11.14,11.06-22.63,21.76-34.01,32.57-32.28,30.64-64.58,61.27-96.87,91.9-1.51,1.44-3.07,2.83-5.89,5.41Z"/>
  <path class="cls-1" d="m27.83,177.97c.68-10.1,1.15-18.8,1.98-27.47.15-1.52,1.68-3.07,2.88-4.31,23.48-24.25,47.12-48.34,70.45-72.73,9.02-9.43,17.36-19.52,26.01-29.31.47-.53.99-1.02,1.42-1.58,6.03-7.94,13.34-12.67,23.96-10.67,4.46.84,9.13.59,14.95.9-3.05,3.79-5.27,7.1-8.03,9.88-31.51,31.74-63.15,63.34-94.64,95.09-12.69,12.79-25.1,25.87-38.98,40.2Z"/>
  <path class="cls-1" d="m175.27,81.81c0,8.59.3,15.98-.09,23.33-.33,6.22-4.31,10.6-8.83,14.54-27.86,24.28-55.78,48.49-83.49,72.94-12.59,11.11-24.58,22.9-37.19,33.99-2.8,2.46-6.98,3.62-10.73,4.69-3.6,1.02-5.68-1.5-5.06-4.72.66-3.42,1.76-7.43,4.1-9.74,21.77-21.46,43.76-42.7,65.85-63.84,24.15-23.1,48.47-46.02,72.73-69.01.5-.47,1.07-.87,2.71-2.18Z"/>
  <path class="cls-1" d="m130.45,31.61c-3.44,5.54-6.12,11.44-10.21,16.1-10.11,11.53-20.73,22.61-31.38,33.66-17.9,18.57-35.98,36.97-54,55.42-1.71,1.75-3.53,3.38-6.57,6.27,0-8.81,0-16.22.01-23.63,0-.33.12-.86.34-.96,9.28-4.44,11.57-14.79,18.32-21.49,18.04-17.94,36.45-35.65,52.86-55.01,9.25-10.92,20.15-8.76,30.63-10.36Z"/>
  <path class="cls-1" d="m98.37,35.82c-20.86,27.5-47.95,49.34-70.35,77.31-.96-14.29-1.27-26.24,9.3-36.12,13.14-12.27,25.23-25.65,38.14-38.17,2.41-2.34,6.42-3.54,9.89-4.17,3.91-.71,8.04-.16,12.07-.16.31.44.63.88.94,1.32Z"/>
  <path class="cls-1" d="m185.98,228.88c1.03,3.41-.34,5.12-3.97,5.19-9.01.19-18.04.09-27.03.58-32.63,1.78-65.25,3.73-97.88,5.65-11.43.67-22.86,1.43-34.52,2.17-.1-5.31,3.02-5.79,6.27-6.06,15.83-1.32,31.65-2.83,47.5-3.89,21.33-1.42,42.68-2.76,64.04-3.58,11.99-.46,24.02.23,36.03.33,3.11.02,6.23-.25,9.57-.39Z"/>
  <path class="cls-1" d="m27.81,76.41c-.85-7.61-1.5-16.87,7.4-23.83,3.02-2.36,5.85-5.31,7.85-8.55,6.51-10.57,16.01-8.69,27.38-6.77-15.01,13.78-29.12,26.74-42.63,39.15Z"/>
  <path class="cls-1" d="m175.57,190.76c2.72,9.56,3.46,17.72-5.06,24-2.39,1.76-4.04,4.59-6.51,6.19-2.71,1.75-5.93,3.58-9.01,3.72-5.75.27-11.55-.64-18.79-1.17,13.49-11.21,26.11-21.71,39.36-32.73Z"/>
  <path class="cls-1" d="m182.69,150.55c.96,24.56,1.92,49.12,2.92,74.91-1.13-1.75-2.47-2.9-2.6-4.18-.79-7.68-1.5-15.37-1.84-23.08-.2-4.51.43-9.04.45-13.57.01-1.77-.57-3.56-.94-5.32-.25-1.17-.88-2.31-.9-3.48-.09-6.52-.27-13.05.1-19.55.11-1.93,1.89-3.76,2.91-5.64,0,0-.1-.09-.1-.09Z"/>
  <path class="cls-1" d="m22.7,69.21v79.9c-.55,0-1.09,0-1.64,0-1.92-26.62-1.66-53.26-.21-79.9.62,0,1.23,0,1.85,0Z"/>
  <path class="cls-1" d="m20.99,60.03c0-9.44-.12-18.89.13-28.32.03-1.3,1.83-3.63,2.88-3.67,7.99-.31,16-.17,24-.17.04.83.07,1.66.11,2.48-8.23.39-16.47.78-25.32,1.2,3.34,10.22,4.08,19.52-1.79,28.48Z"/>
  <path class="cls-1" d="m54.81,28.35h64.14c-21.41.02-42.67,5.5-64.18,2.84.01-.95.02-1.89.03-2.84Z"/>
  <path class="cls-1" d="m29.18,50.74c.32-2.06.57-4.13.98-6.16q2.02-9.98,14.59-8.97c-5.14,6.04-9.58,11.26-14.02,16.47-.52-.44-1.03-.89-1.55-1.33Z"/>
  <path class="cls-1" d="m22.72,231.63v-36.35c.57,0,1.15,0,1.72-.01,0,6.3.38,12.63-.11,18.9-.46,5.82,2.95,12,.03,17.6-.55-.05-1.09-.09-1.64-.14Z"/>
  <path class="cls-1" d="m147.08,26.44c7.62-1.05,15.24-2.19,22.89-3.02,1.05-.12,2.27,1.28,3.41,1.98-1.17.73-2.33,2.05-3.52,2.08-7.56.19-15.13.1-22.69.1-.03-.38-.06-.76-.09-1.13Z"/>
  <path class="cls-1" d="m178.05,214.77c.26,3.75.42,6.18.63,9.23-1.6,0-3.31,0-5.01,0s-3.37,0-6.41,0c3.95-3.38,7-5.99,10.79-9.23Z"/>
  <path class="cls-1" d="m22.57,168.71c-.49-5.91-.93-11.38-1.43-17.43,3.84,2.85,4.25,10.35,1.43,17.43Z"/>
  <path class="cls-1" d="m23.44,394.83c1.81-.38,3.61-.98,5.43-1.09,25.93-1.58,51.85-3.36,77.8-4.55,22.78-1.04,45.59-1.4,68.39-2.05,1.06-.03,2.38-.43,3.12.04,1.28.81,2.2,2.19,3.28,3.32-1.09.83-2.14,2.3-3.28,2.38-12,.76-24,1.55-36.01,1.85-33.59.84-67.18,1.44-100.77,2.19-4.42.1-8.82.65-13.24.7-1.62.02-3.24-.81-4.87-1.26.05-.51.1-1.02.14-1.53Z"/>
  <path class="cls-1" d="m274.23,623.83c-1.47-8.43-.43-10.01,6.85-10.4,8.29-.44,16.61-.56,24.91-.81,36.76-1.08,73.53-2.17,110.29-3.2,2.64-.07,5.29.25,7.94.44,3.36.24,5.16,1.93,5.14,5.43-.02,3.44-1.6,5.29-5.11,5.35-7.24.14-14.48.34-21.72.4-20.49.18-40.98.33-61.48.43-15.38.08-30.77-.14-46.14.21-6.83.15-13.64,1.38-20.68,2.14Z"/>
  <path class="cls-1" d="m28.99,629.01c-.28-3.06-.48-5.32-.79-8.75,4.85-.26,9.48-.64,14.12-.72,29.88-.54,59.75-.97,89.63-1.54,15.56-.29,31.12-.79,46.68-1.17.88-.02,1.77.12,2.65.12,2.72-.02,4.82,1.24,4.14,3.94-.35,1.38-2.78,3.11-4.35,3.19-13.42.75-26.85,1.23-40.28,1.66-35.18,1.13-70.35,2.19-105.53,3.27-1.91.06-3.83,0-6.26,0Z"/>
  <path class="cls-2" d="m553.81,608.3c10.61.57,21.22,1.13,31.83,1.7.21.54.42,1.08.64,1.61-1.51.84-3.03,2.42-4.52,2.39-15.02-.29-30.03-.8-45.03-1.4-1.47-.06-2.9-1.07-5.9-2.25,3.37-1.21,5.37-1.88,7.33-2.63,4.51-1.74,9.76-2.56,13.38-5.44,29.49-23.39,58.71-47.11,87.91-70.86,5.34-4.34,10.19-9.28,15.36-13.82,3.16-2.77,3.79-2.7,9,.01-37.1,29.85-73.84,59.42-110.58,88.98.19.57.39,1.13.58,1.7Z"/>
  <path class="cls-2" d="m663.06,329.94c-1.25,2.06-2.06,4.62-3.8,6.11-24.18,20.72-47.99,41.9-72.91,61.69-19.5,15.48-40.43,29.18-60.71,43.69-3.44,2.46-6.73,5.16-10.26,7.49-.86.57-2.38.14-3.6.17.3-1.17.23-2.74.97-3.43,3.1-2.88,6.19-5.88,9.73-8.14,46.37-29.65,88.1-65.17,129.13-101.59,3.02-2.68,6.08-5.33,9.12-8,.77.67,1.55,1.34,2.32,2.01Z"/>
  <path class="cls-2" d="m661.47,245.94c2.05,2.98,3.86,4.48,3.87,5.98,0,1.28-2.2,3.72-3.17,3.6-1.58-.19-3.87-1.87-4.16-3.28-.28-1.35,1.61-3.14,3.46-6.3Z"/>
</svg>